<?xml version="1.0" encoding="UTF-8" standalone="no"?>
<svg
   version="1.1"
   width="1024"
   height="1024"
   id="svg101"
   xmlns="http://www.w3.org/2000/svg"
   xmlns:svg="http://www.w3.org/2000/svg">
  <defs
     id="defs101" />
  <path
     d="m 717.99931,162.86789 c -13.70715,17.01334 -22.18478,36.40198 -25.19697,58.11531 l -37.47602,65.13634 c 3.23194,38.65703 44.53803,5.26695 63.20154,-20.96317 -8.972,-118.18916 79.86596,-142.32814 125.89912,-153.31167 54.75297,-13.183517 73.35323,-37.244378 84.77729,-37.516375 9.66889,4.203542 11.73648,14.361044 14.034,23.577158 21.43149,61.126657 10.74945,203.222617 -95.12484,237.776657 -9.31184,2.70059 -21.03282,5.34045 -28.14517,13.4415 -6.30816,11.90507 -3.46037,24.14896 -1.97935,36.99261 14.90292,100.51561 -25.00388,187.61312 -73.58903,271.30769 76.39729,75.34651 153.38526,150.14707 231.26135,223.97478 58.49497,52.57678 -20.41285,154.04288 -88.83266,85.53705 -73.81613,-74.04672 -128.48061,-152.10839 -212.7357,-234.56036 -64.85263,54.79508 -139.31355,80.12772 -225.79716,86.98306 -1.01295,1.28828 -6.24801,5.91906 -7.29164,7.2464 -1.15765,1.41288 -2.31529,2.82578 -3.50802,4.28149 -1.73648,2.17359 -1.73648,2.17359 -3.50803,4.39113 -2.32059,2.61469 -4.65911,5.21362 -7.01604,7.79561 -1.15363,1.28225 -2.30728,2.56451 -3.49586,3.88562 -2.37748,2.64076 -4.75683,5.27985 -7.13784,7.91741 -5.32913,5.9072 -10.64436,11.82244 -15.87139,17.82029 -7.50125,8.60741 -15.16412,17.07109 -22.84481,25.51845 -6.00648,6.6256 -11.90846,13.32031 -17.69237,20.14031 -24.58413,28.95167 -24.58413,28.95167 -39.66018,31.5178 -8.60105,-1.40426 -16.22069,-6.70671 -21.92515,-13.25254 -2.97587,-8.9276 -3.20927,-17.56672 0.21924,-26.41981 2.82965,-5.37084 5.9057,-10.54102 9.13549,-15.67649 0.64389,-1.03581 1.28777,-2.07162 1.95118,-3.13879 3.74291,-6.00882 7.53241,-11.98657 11.34398,-17.952 5.75736,-9.03472 11.39079,-18.14463 17.00462,-27.26887 1.62725,-2.64476 3.25694,-5.28804 4.88666,-7.93128 5.03627,-8.19043 10.0074,-16.39401 14.70548,-24.78342 C -16.485477,737.47986 -58.209941,353.15067 121.36673,153.5235 253.02441,7.1656744 489.67122,-73.908569 717.99931,162.86789 Z"
     fill="#253948"
     id="path2"
     style="stroke-width:1.55912" />
  <path
     d="m 649.67676,175.28136 c 15.10503,13.50662 31.05301,29.35527 43.08968,45.69897 -1.35851,21.44797 2.15474,46.28965 6.88873,65.76625 -45.7441,52.23902 -93.13786,109.24225 -127.25241,169.96283 -3.20329,5.19547 -5.50704,8.42612 -11.44257,10.35164 -154.51697,11.87722 -162.5276,137.12329 -115.66853,197.10261 29.67792,38.17153 15.79709,119.24512 -104.85098,88.4802 -557.7017,-160.8989 -128.28164,-949.52062 309.23608,-577.3625 z"
     fill="#eedcc0"
     id="path3"
     style="stroke-width:1.55912" />
  <path
     d="m 911.07947,121.1993 c 10.23302,55.69478 3.97245,120.19199 -35.76379,163.02572 -14.99028,14.4857 -31.96995,23.49936 -53.13007,23.24752 -14.87907,-2.35798 -42.52443,-27.62148 -62.9941,-38.70475 -12.11613,-6.23779 -11.1644,-19.39386 -12.1441,-31.23727 -0.99822,-20.00148 6.50247,-39.31337 19.42204,-54.25867 23.59684,-24.798 54.44482,-35.00615 87.2134,-41.80396 36.38585,-7.55058 49.09926,-20.26859 57.39575,-20.26859 z"
     fill="#7f583b"
     id="path5"
     style="stroke-width:1.55912" />
  <path
     d="M 762.75052,439.17329 C 773.25036,575.3803 631.69536,727.14327 513.89295,752.01536 543.34955,715.014 705.12074,524.19172 762.75052,439.17329 Z"
     fill="#ebe9e5"
     id="path6"
     style="stroke-width:1.55912" />
  <path
     d="m 396.56908,167.97296 c 76.41095,50.83602 -13.82661,183.45532 -95.10646,109.13857 -58.98003,-65.43406 18.65342,-161.40087 95.10646,-109.13857 z"
     fill="#d6583a"
     id="path8"
     style="stroke-width:1.55912" />
  <path
     d="m 270.96229,399.89241 c -60.12435,77.30288 -176.877289,-10.50607 -111.8914,-91.73851 55.88449,-62.21327 163.70372,13.86049 111.8914,91.73851 z"
     fill="#f0ae40"
     id="path9"
     style="stroke-width:1.55912" />
  <path
     d="m 600.32689,193.99082 c 69.31234,62.26642 -31.6804,174.51039 -104.4612,98.32215 -53.44213,-60.84156 25.5956,-159.23176 104.4612,-98.32215 z"
     fill="#5b8e87"
     id="path10"
     style="stroke-width:1.55912" />
  <path
     d="m 269.48234,485.13865 c 88.00819,55.27577 -1.29566,179.06919 -80.27653,117.82946 -67.61764,-58.2314 7.87798,-159.31374 80.27653,-117.82946 z"
     fill="#3f657c"
     id="path11"
     style="stroke-width:1.55912" />
  <path
     d="m 731.7804,297.38012 c 20.49675,11.79427 39.71841,25.67177 59.24665,38.97806 -3.78301,11.64766 -52.26577,78.63105 -53.01017,79.51525 -33.82652,-26.70302 -49.85116,-37.24096 -62.36489,-46.77368 16.05502,-23.47066 36.55678,-51.96643 56.12841,-71.71963 z"
     fill="#ebe9e5"
     id="path19"
     style="stroke-width:1.55912" />
  <path
     d="m 541.56747,504.7434 c -58.18888,103.0397 -10.1884,15.22748 -76.397,129.40716 -48.92292,-42.62316 17.17886,-147.94579 76.397,-129.40716 z"
     fill="#ebe9e5"
     id="path23"
     style="stroke-width:1.55912" />
</svg>
